HIERARCHY
ROOT Hips
{
  OFFSET 0 0 0
  CHANNELS 6 Xposition Yposition Zposition Zrotation Yrotation Xrotation
  JOINT LeftThigh
  {
    OFFSET 8.409438 0 -5.917753
    CHANNELS 3 Zrotation Yrotation Xrotation
    JOINT LeftLeg
    {
      OFFSET 0 0 -42.358652
      CHANNELS 3 Zrotation Yrotation Xrotation
      JOINT LeftFoot
      {
        OFFSET 0 0 -39.357303
        CHANNELS 3 Zrotation Yrotation Xrotation
      }
    }
  }
  JOINT RightThigh
  {
    OFFSET -8.409438 0 -5.917753
    CHANNELS 3 Zrotation Yrotation Xrotation
    JOINT RightLeg
    {
      OFFSET 0 0 -42.358652
      CHANNELS 3 Zrotation Yrotation Xrotation
      JOINT RightFoot
      {
        OFFSET 0 0 -39.357303
        CHANNELS 3 Zrotation Yrotation Xrotation
      }
    }
  }
  JOINT SpineLow
  {
    OFFSET 0 0 4.719101
    CHANNELS 3 Zrotation Yrotation Xrotation
    JOINT SpineMid
    {
      OFFSET 0 0 12.899191
      CHANNELS 3 Zrotation Yrotation Xrotation
      JOINT Chest
      {
        OFFSET 0 0 12.899191
        CHANNELS 3 Zrotation Yrotation Xrotation
        JOINT LeftShoulder
        {
          OFFSET 7.550562 1.41573 9.438202
          CHANNELS 3 Zrotation Yrotation Xrotation
          JOINT LeftArm
          {
            OFFSET 9.155056 0 4.247191
            CHANNELS 3 Zrotation Yrotation Xrotation
            JOINT LeftForearm
            {
              OFFSET 0 0 25.771955
              CHANNELS 3 Zrotation Yrotation Xrotation
              JOINT LeftHand
              {
                OFFSET 0 0 25.197169
                CHANNELS 3 Zrotation Yrotation Xrotation
              }
            }
          }
        }
        JOINT RightShoulder
        {
          OFFSET -7.550562 1.41573 9.438202
          CHANNELS 3 Zrotation Yrotation Xrotation
          JOINT RightArm
          {
            OFFSET -9.155056 0 4.247191
            CHANNELS 3 Zrotation Yrotation Xrotation
            JOINT RightForearm
            {
              OFFSET 0 0 -25.771955
              CHANNELS 3 Zrotation Yrotation Xrotation
              JOINT RightHand
              {
                OFFSET 0 0 -25.197169
                CHANNELS 3 Zrotation Yrotation Xrotation
              }
            }
          }
        }
        JOINT Neck
        {
          OFFSET 0 0 15.101124
          CHANNELS 3 Zrotation Yrotation Xrotation
          JOINT Head
          {
            OFFSET 0 0 11.325843
            CHANNELS 3 Zrotation Yrotation Xrotation
            End Site
            {
              OFFSET 0 0 14.157303
            }
          }
        }
      }
    }
  }
}
MOTION
Frames: 17
Frame Time: 0.0
0.0  89.887642  0.0  -90.122324  44.864932  -169.807107  12.185016  -55.149325  -35.075002  -14.643459  18.724835  27.435249  11.024119  -2.411302  5.459617  -11.067813  34.2757  -54.723969  6.895008  12.600386  30.935899  -2.207694  2.115148  -4.379277  -2.191286  -2.996502  0.321322  -6.057957  -8.153409  1.155423  -6.057957  -8.15341  1.155423  -16.354829  19.406174  3.682301  112.268159  62.196651  -159.905104  -28.334027  17.974941  74.769685  78.003874  -3.174716  12.066159  -22.13385  12.307397  15.216486  52.767566  54.187484  44.413973  -16.523769  -53.479515  -62.642384  83.478776  4.142994  -30.570287  -38.811541  -4.210763  19.128802  -28.999593  -4.401268  14.140936  
0.0  89.887642  0.0  -89.847183  44.564838  -169.316553  15.30682  -54.892256  -37.616423  -15.208276  19.079004  27.615761  10.750371  -2.379714  5.278958  -9.332363  36.737351  -52.891672  3.029217  9.455993  26.228447  -2.031539  2.401205  -4.62681  -2.020182  -2.963986  0.387472  -5.595166  -8.06243  1.31281  -5.595166  -8.06243  1.31281  -16.101465  19.166658  3.469829  113.317342  62.370093  -158.967936  -27.9646  17.975935  74.40714  78.875181  -3.104291  11.928558  -22.566516  12.209513  14.929768  54.530153  53.299937  46.260711  -16.993453  -53.446723  -61.859554  83.811646  4.697245  -30.872806  -38.526912  -4.433609  18.838786  -28.778557  -4.541359  13.908504  
0.0  89.887642  0.0  -89.177664  44.187153  -168.7734  18.066706  -54.889862  -39.336233  -16.111016  19.611924  27.462436  10.680597  -2.344388  5.159609  -7.441103  38.163936  -50.458094  0.53947  6.212379  21.334576  -2.188422  2.777828  -4.75133  -1.886044  -2.940946  0.506692  -5.24056  -7.992984  1.621549  -5.24056  -7.992984  1.621549  -15.459549  18.685179  3.043735  115.104231  62.196633  -157.283677  -27.806166  18.372174  73.863919  79.669659  -2.950895  12.579919  -22.523961  12.044394  14.851635  55.957788  52.686516  47.570052  -17.824493  -53.43178  -60.783183  84.258127  5.220043  -31.139544  -38.005215  -4.553798  18.669064  -28.38312  -4.604376  13.774729  
0.0  89.887642  0.0  -87.955903  43.676846  -167.874429  20.035559  -55.283642  -40.086873  -16.816214  20.071316  27.230172  10.600866  -2.252694  5.102695  -6.190057  38.249373  -48.282655  -1.955342  4.142984  16.148  -1.178197  2.599121  -4.564125  -1.744803  -2.978956  0.560172  -4.860737  -8.096623  1.754136  -4.860738  -8.096623  1.754136  -14.590754  18.584854  2.933376  117.43491  61.862338  -155.168129  -27.573103  18.822224  73.300172  79.797955  -2.698044  13.726671  -22.173022  12.298357  15.168068  57.200592  52.247311  48.468444  -18.878496  -53.368035  -59.470358  84.719049  5.727885  -31.362564  -37.462094  -4.24257  18.737431  -27.986709  -4.356678  13.848737  
0.0  89.887642  0.0  -86.485072  43.186887  -166.911173  20.498846  -55.784085  -39.523155  -17.314459  20.2448  27.048253  10.777673  -2.160267  5.260958  -6.388644  36.559637  -47.087956  -4.138317  3.448231  11.789119  0.307941  2.509237  -4.824255  -1.588017  -3.002488  0.606674  -4.436881  -8.162237  1.86418  -4.436881  -8.162237  1.86418  -13.812685  18.745586  3.249293  119.773556  61.865664  -153.191439  -27.400294  19.462209  72.675467  79.686428  -2.401565  15.183759  -21.76672  12.444418  15.708149  58.179244  52.047845  48.941802  -20.015939  -53.383603  -58.085803  85.236781  6.206517  -31.487044  -37.051065  -3.910985  19.094944  -27.689231  -4.115622  14.140775  
0.0  89.887642  0.0  -85.063572  42.73775  -165.80601  19.447278  -56.222003  -38.085382  -17.049984  20.013442  27.311999  10.997268  -2.185653  5.560683  -8.405125  33.152743  -47.726997  -4.201789  3.087432  8.274118  0.711158  2.408044  -4.629468  -1.420332  -3.005878  0.622426  -3.978506  -8.175584  1.886829  -3.978506  -8.175583  1.886829  -13.328385  18.723931  3.475238  122.020823  61.736005  -151.370481  -27.436063  20.312882  71.928811  79.817944  -2.13372  16.730529  -21.46333  12.345045  16.279572  58.987868  52.044162  49.104521  -21.534349  -53.340579  -56.131685  85.705361  6.885906  -31.809011  -36.803197  -3.672828  19.677854  -27.510435  -3.963721  14.595685  
0.0  89.887642  0.0  -83.610515  42.321718  -164.676707  17.422278  -56.59914  -35.962545  -16.561297  19.546517  27.733766  11.138611  -2.161108  5.887876  -10.067976  28.995934  -48.03864  -3.747208  3.767006  5.048777  0.851282  2.116198  -4.358634  -1.25823  -3.007584  0.641388  -3.535792  -8.184116  1.918825  -3.535792  -8.184116  1.918825  -13.038029  18.589844  3.526523  124.083033  61.389251  -149.729607  -27.501683  21.018273  71.197251  80.040826  -1.862759  18.087157  -21.154774  12.210634  16.811957  59.675966  52.145746  48.910164  -23.294308  -53.302796  -53.915748  86.097777  7.537245  -32.12212  -36.634569  -3.497927  20.326242  -27.38899  -3.86575  15.095499  
0.0  89.887642  0.0  -82.05674  42.003409  -163.546592  15.141743  -56.867308  -33.534146  -16.133633  19.025217  28.118212  11.270488  -1.991573  6.171301  -12.085904  25.182989  -49.606799  -3.578542  3.672855  4.024587  0.84831  1.990428  -4.343205  -1.099991  -2.961147  0.713958  -3.108441  -8.058583  2.095909  -3.108441  -8.058583  2.09591  -12.880396  18.009626  3.382965  125.972507  60.934555  -148.147928  -27.56419  21.468077  70.612184  80.325056  -1.581037  19.152557  -20.976108  11.622256  16.739177  60.570809  51.976725  49.198692  -24.678077  -53.273786  -52.195135  86.328724  8.055029  -32.33801  -36.467924  -3.616955  20.972389  -27.257906  -3.988919  15.574995  
0.0  89.887642  0.0  -80.615314  41.744274  -162.236666  12.864086  -57.044898  -31.301236  -15.600916  18.641308  28.449897  11.678729  -1.801706  6.4506  -14.658551  21.025882  -51.289426  -2.497286  3.42703  3.451394  0.378053  1.550455  -3.899734  -0.966623  -2.939552  0.745507  -2.745272  -8.002633  2.165146  -2.745272  -8.002633  2.165147  -12.776429  17.660594  3.38942  127.253522  60.683882  -147.056811  -27.471837  21.426193  70.328117  80.459621  -1.359791  19.717355  -21.305949  11.43201  16.68275  61.589062  51.862441  49.150973  -25.575592  -53.268495  -51.216589  86.219845  8.20436  -32.222373  -36.309356  -3.745521  21.473442  -27.132603  -4.110466  15.944603  
0.0  89.887642  0.0  -79.379475  41.82055  -161.326042  9.935  -57.044181  -28.541337  -14.850376  18.478133  28.657834  12.242441  -1.563927  6.633464  -16.972842  17.905529  -52.799512  -1.644022  3.091928  4.00501  0.137244  1.476023  -3.402291  -0.912719  -2.913033  0.768811  -2.599049  -7.93106  2.221362  -2.599049  -7.931061  2.221362  -12.60172  17.533973  3.603772  127.773257  60.439457  -146.582121  -27.272962  20.86238  70.374272  80.373115  -1.338262  19.679599  -21.099782  11.32976  16.603997  62.048558  51.479526  49.255554  -25.942395  -53.235219  -51.007395  85.795201  8.031355  -31.794885  -36.17285  -3.70636  21.852187  -27.030844  -4.098786  16.232609  
0.0  89.887642  0.0  -78.135129  41.906976  -160.439796  7.939487  -56.967393  -26.407504  -14.131886  18.487024  28.778786  12.687962  -1.314841  6.626947  -18.310594  16.334392  -55.043814  -1.572884  2.967424  6.474777  0.481444  1.585694  -3.190533  -0.886932  -2.909618  0.775213  -2.528893  -7.922374  2.235672  -2.528893  -7.922374  2.235672  -12.63659  17.555781  3.926483  127.847165  60.347667  -146.651557  -27.179419  20.062973  70.658508  80.244793  -1.54113  19.199563  -21.251487  11.642069  16.787786  62.301153  51.307162  48.683527  -25.512866  -53.17738  -51.737209  85.081104  7.669439  -31.0599  -36.068726  -3.584579  22.07418  -26.957184  -4.016465  16.407637  
0.0  89.887642  0.0  -77.072388  42.062372  -159.695209  7.207747  -56.884638  -25.262881  -13.628026  18.745327  28.757435  12.812957  -1.077772  6.505608  -18.490173  16.2026  -56.853566  -1.818367  3.36148  9.357419  1.007055  1.619189  -3.056411  -0.912939  -2.927999  0.759694  -2.599153  -7.972318  2.197036  -2.599153  -7.972317  2.197037  -12.48682  17.653372  4.302569  127.139145  60.26556  -147.261788  -27.253929  19.19047  71.075179  80.051096  -1.927427  18.472129  -20.967889  11.884966  16.958797  62.11824  51.137677  48.171979  -25.019903  -53.144091  -52.549169  84.423547  7.505962  -30.557388  -35.981542  -3.35184  22.151894  -26.901104  -3.84242  16.48083  
0.0  89.887642  0.0  -76.143597  42.173573  -159.093117  7.741677  -56.9131  -25.144993  -13.526877  19.365775  28.600893  12.775522  -0.965992  6.346594  -17.59238  16.726006  -57.452559  -1.772313  4.180407  11.803429  1.16963  1.704278  -2.978428  -0.979651  -2.997612  0.739051  -2.782566  -8.161113  2.151797  -2.782566  -8.161113  2.151797  -12.522826  18.058139  4.639565  126.155366  60.34159  -148.287265  -27.342046  18.342806  71.592994  79.732028  -2.420833  17.562456  -21.07376  12.604314  17.337367  62.207185  51.009983  48.234933  -23.439139  -53.365477  -55.087343  83.858137  7.561256  -30.361774  -35.890868  -2.971741  22.05198  -26.848511  -3.546523  16.42923  
0.0  89.887642  0.0  -75.192353  42.323652  -158.540674  9.275776  -56.635048  -25.772165  -14.017069  19.981907  28.385644  12.590117  -0.870715  6.284689  -16.168826  17.430543  -57.002567  -1.424593  5.278021  13.825215  1.106838  1.726087  -2.984348  -1.063103  -3.036643  0.744894  -3.014043  -8.264645  2.180215  -3.014042  -8.264646  2.180215  -12.408693  18.175226  4.776521  124.692562  60.33996  -149.615242  -27.476103  17.553834  72.095882  79.313699  -2.977552  16.740641  -20.807126  12.819617  17.498806  62.15192  51.039197  47.873784  -22.642584  -53.265358  -56.474321  83.477978  7.778123  -30.517789  -35.763344  -2.685477  21.920287  -26.764206  -3.318139  16.347724  
0.0  89.887642  0.0  -74.37266  42.529035  -157.98418  11.210923  -55.893838  -26.952327  -15.139494  20.447465  28.167484  12.642986  -0.713891  6.266448  -14.754518  17.912392  -56.031857  -1.123222  6.555855  15.662123  1.077912  1.759938  -3.079471  -1.171039  -3.093019  0.753045  -3.313874  -8.414518  2.219348  -3.313874  -8.414518  2.219348  -12.39199  18.36585  4.723043  123.084387  60.421739  -151.14252  -27.513281  16.863866  72.676359  78.89703  -3.450204  15.936081  -20.884615  13.129846  17.56405  62.571047  51.15649  47.69282  -21.845686  -53.045549  -58.102677  83.259358  8.067049  -30.842697  -35.624381  -2.411611  21.641425  -26.670605  -3.09003  16.154443  
0.0  89.887642  0.0  -73.536237  42.768037  -157.313338  12.867705  -54.847217  -28.032234  -16.22886  20.706816  28.165437  12.999158  -0.585903  6.347137  -13.378441  18.219469  -54.696237  -1.198374  8.03493  17.279213  1.112088  1.762797  -3.196379  -1.278613  -3.141034  0.726548  -3.608  -8.543362  2.163281  -3.608001  -8.543362  2.163281  -12.372123  18.569815  4.762261  121.267479  60.555214  -152.893204  -27.464735  16.214216  73.262337  78.581269  -3.862353  15.254785  -20.765601  13.365411  17.674264  62.634155  51.168765  47.522479  -20.811205  -52.533893  -60.006209  83.130434  8.323775  -31.119368  -35.523524  -2.088803  21.410631  -26.607151  -2.829389  16.000117  
0.0  89.887642  0.0  -72.926266  43.289368  -157.077351  13.41127  -53.855788  -28.350662  -17.068774  21.189062  28.278301  13.32531  -0.526953  6.370832  -12.284542  18.845062  -53.515753  -1.904807  9.524437  19.468106  1.132929  1.729125  -3.333334  -1.429824  -3.14641  0.734508  -4.024664  -8.552289  2.205152  -4.024664  -8.552289  2.205152  -12.429377  18.726366  4.852891  119.477513  60.780826  -154.674851  -27.275898  15.53421  73.852443  78.384611  -4.170717  14.78163  -20.744009  13.490025  17.828978  62.820188  51.147833  47.423717  -19.859084  -51.749335  -62.024147  82.988351  8.398698  -31.091396  -35.472846  -1.800366  21.194437  -26.57975  -2.597398  15.85457  
